<?xml version="1.0" encoding="utf-8"?>
<!-- Generator: Adobe Illustrator 24.2.0, SVG Export Plug-In . SVG Version: 6.00 Build 0)  -->
<svg version="1.1" id="Layer_1" xmlns="http://www.w3.org/2000/svg" xmlns:xlink="http://www.w3.org/1999/xlink" x="0px" y="0px"
	 viewBox="0 0 55.5 55.5" style="enable-background:new 0 0 55.5 55.5;" xml:space="preserve">
<style type="text/css">
	.st0{fill:#FFFFFF;}
</style>
<path class="st0" d="M48,20.8h-4.5L27.7,36.6L19.1,28l4.4-4.4l4.2,4.2l7.1-7.1V7.5c0-0.5-0.4-0.8-0.8-0.8H21.6
	c-0.5,0-0.8,0.4-0.8,0.8v13.3H7.5c-0.5,0-0.8,0.4-0.8,0.8v12.2c0,0.5,0.4,0.8,0.8,0.8h13.3V48c0,0.5,0.4,0.8,0.8,0.8h12.3
	c0.5,0,0.8-0.4,0.8-0.8V34.7H48c0.5,0,0.8-0.4,0.8-0.8V21.6C48.8,21.2,48.4,20.8,48,20.8z"/>
</svg>
