<?xml version="1.0" encoding="utf-8"?>
<!-- Generator: Adobe Illustrator 24.2.0, SVG Export Plug-In . SVG Version: 6.00 Build 0)  -->
<svg version="1.1" id="Layer_1" xmlns="http://www.w3.org/2000/svg" xmlns:xlink="http://www.w3.org/1999/xlink" x="0px" y="0px"
	 viewBox="0 0 21.2 21" style="enable-background:new 0 0 21.2 21;" xml:space="preserve">
<style type="text/css">
	.st0{fill:#FFCF3B;}
	.st1{fill:#FFFFFF;}
</style>
<g>
	<polygon class="st0" points="10.6,0 8.5,1 6.3,0.9 4.8,2.6 2.7,3.5 2,5.7 0.5,7.3 0.7,9.6 0,11.7 1.2,13.6 1.4,15.9 3.2,17.2 
		4.3,19.2 6.6,19.6 8.4,21 10.6,20.4 12.8,21 14.6,19.6 16.8,19.2 17.9,17.2 19.8,15.9 20,13.6 21.2,11.7 20.4,9.6 20.7,7.3 
		19.2,5.7 18.5,3.5 16.4,2.6 14.9,0.9 12.6,1 	"/>
	<g>
		<rect x="10.7" y="6.6" transform="matrix(0.7071 0.7071 -0.7071 0.7071 11.036 -5.1889)" class="st1" width="2.2" height="8.3"/>
		<rect x="7.4" y="9.1" transform="matrix(0.7071 -0.7071 0.7071 0.7071 -5.8362 9.4812)" class="st1" width="2.2" height="5.3"/>
	</g>
</g>
</svg>
