<?xml version="1.0" encoding="utf-8"?>
<!-- Generator: Adobe Illustrator 24.2.0, SVG Export Plug-In . SVG Version: 6.00 Build 0)  -->
<svg version="1.1" id="Layer_1" xmlns="http://www.w3.org/2000/svg" xmlns:xlink="http://www.w3.org/1999/xlink" x="0px" y="0px"
	 viewBox="0 0 55.5 55.5" style="enable-background:new 0 0 55.5 55.5;" xml:space="preserve">
<style type="text/css">
	.st0{fill:#FFFFFF;}
</style>
<g>
	<g>
		<path class="st0" d="M24.1,29.9c-0.7,0-1.6-0.4-2.3-1.1c-0.2-0.1-0.4-0.2-0.6-0.3c-2.1-0.2-3.2-1.6-2.9-3.7c0.2-1.2,0.7-2.2,1.7-3
			c0.7-0.7,1.6-0.9,2.6-0.8c0.1,0,0.4-0.1,0.5-0.2c2.2-2.5,4.4-4.9,6.6-7.4c1.3-1.5,2.6-2.9,3.9-4.4c0.5-0.6,0.8-0.6,1.4-0.1
			c0.6,0.5,1.2,1,1.8,1.6c0.6,0.6,0.7,0.9,0.1,1.5c-2.8,3.2-5.5,6.4-8.3,9.6c-0.9,1-1.1,2.2-0.9,3.5c0.1,0.6,0.2,1.2,0.2,1.7
			C27.6,28.9,26.3,29.9,24.1,29.9z M34.3,10.5c-0.1,0.1-0.1,0.1-0.2,0.1c-3.7,4.1-7.3,8.2-11,12.3c-0.5,0.6-1,1.3-1.2,2.1
			c-0.6,1.7,0.6,3.4,2.4,3.5c1.3,0.1,2.1-0.8,1.9-2.1c0-0.3-0.1-0.6-0.2-0.8c-0.3-1.7-0.1-3.3,1.2-4.7c2.6-2.9,5.1-5.9,7.7-8.8
			c0.2-0.2,0.3-0.4,0.5-0.6C35.1,11.2,34.7,10.8,34.3,10.5z M21.6,22.6c-1.1,0.5-2,2-2,3c0,0.6,0.3,1.1,1,1.3
			C20.2,25.4,20.6,24,21.6,22.6z"/>
		<path class="st0" d="M13.8,32.1c0.2,1.3,0.4,2.5,0.5,3.7c0.5,3.8,0.9,7.6,0.8,11.5c0,1-0.1,1.9-0.2,2.9c-0.1,0.6-0.4,0.8-0.9,0.8
			c-0.4,0-0.7-0.4-0.6-0.9c0.5-4.2,0.1-8.3-0.4-12.5c-0.2-1.9-0.5-3.7-0.8-5.6c-0.1-0.8-0.5-1.5-0.7-2.3c-0.5-1.9-0.7-3.8,0-5.6
			c0.3-0.8,0.8-1.4,1.3-2.2c0.1-0.2,0.3-0.4,0.4-0.6c3.7-5.5,7.5-11.1,11.2-16.6c0.1-0.1,0.1-0.2,0.2-0.3c0.3-0.3,0.6-0.4,1-0.2
			c0.3,0.2,0.4,0.6,0.2,1c-0.6,0.8-1.1,1.7-1.7,2.5c-3.2,4.8-6.5,9.7-9.7,14.5c-0.1,0.2-0.3,0.4-0.5,0.6c-1,1.1-1.4,2.4-1.3,3.9
			c0,1.2,0.3,2.4,0.8,3.5c0.1,0.1,0.3,0.2,0.4,0.3c0.3,0,0.6,0,0.9,0c0.6,0,1,0.3,1,0.8c0,0.5-0.3,0.7-1,0.7
			C14.4,32.1,14.1,32.1,13.8,32.1z"/>
		<path class="st0" d="M30.8,39.9c0,3.9-1,7.6-3.1,11c-0.3,0.5-0.7,0.6-1.1,0.3c-0.4-0.2-0.4-0.6-0.1-1c1.6-2.5,2.5-5.3,2.7-8.3
			c0.2-2.1,0.1-4.2-0.4-6.2c-0.1-0.2-0.2-0.5-0.3-0.7c-1.2-2.1-1-4.4,0.7-6.2c4.6-4.7,9.3-9.3,13.9-14c0.4-0.4,0.8-0.4,1.1-0.1
			c0.3,0.3,0.3,0.7-0.2,1.2c-4.5,4.5-9,9-13.6,13.6c-0.5,0.5-0.9,1.1-1.1,1.8c-0.3,0.9-0.2,1.9,0.3,2.7c0.5,0.9,0.7,1.8,0.8,2.8
			C30.7,37.8,30.7,38.9,30.8,39.9z"/>
		<path class="st0" d="M16.8,40.8c0-1.9-0.1-3.8,0-5.7c0.3-3.6,4.2-4.9,6.7-3.7c1.7,0.8,2.2,2.9,1.2,4.3c-0.9,1.2-1.2,2.5-1.2,3.9
			c0,2.2-0.1,4.4-0.1,6.6c0,0.7-0.2,0.9-1,0.9c-1.6,0-3.1,0-4.7,0c-0.7,0-1-0.2-1-1C16.8,44.3,16.8,42.5,16.8,40.8
			C16.8,40.8,16.8,40.8,16.8,40.8z M22.1,45.6c0-0.2,0-0.3,0-0.4c0-2.1,0-4.2,0.1-6.4c0-0.3,0-0.5,0-0.8c0.1-1.2,0.7-2.2,1.3-3.2
			c0.5-0.8,0.3-1.6-0.5-2.1c-0.2-0.1-0.5-0.2-0.7-0.3c-2.1-0.5-4.1,1-4.1,3.2c0,3.2,0,6.3,0,9.5c0,0.1,0,0.2,0,0.4
			C19.5,45.6,20.8,45.6,22.1,45.6z"/>
	</g>
</g>
</svg>
