<?xml version="1.0" encoding="utf-8"?>
<!-- Generator: Adobe Illustrator 24.2.0, SVG Export Plug-In . SVG Version: 6.00 Build 0)  -->
<svg version="1.1" id="Layer_1" xmlns="http://www.w3.org/2000/svg" xmlns:xlink="http://www.w3.org/1999/xlink" x="0px" y="0px"
	 viewBox="0 0 21.2 21" style="enable-background:new 0 0 21.2 21;" xml:space="preserve">
<style type="text/css">
	.st0{fill:#3FAE80;}
</style>
<g>
	<path class="st0" d="M11.2,1.9c0.2,0,0.5,0.1,0.7,0.1c2.9,0.5,5,2,6.4,4.6c0.7,1.4,1.1,2.8,1,4.4c-0.2,3.2-1.8,5.7-4.6,7.2
		c-1.4,0.7-2.8,1-4.4,1c-2.2-0.1-4-0.9-5.6-2.4c-1.4-1.4-2.3-3.1-2.6-5C2,11.4,2,11.3,2,11.1c0-0.4,0-0.8,0-1.1c0,0,0-0.1,0-0.1
		C2.1,9.4,2.1,9,2.2,8.6C2.9,5.1,5.8,2.5,9.4,2c0.2,0,0.4-0.1,0.7-0.1C10.4,1.9,10.8,1.9,11.2,1.9z M10.6,2.6c-4.5,0-8,3.8-7.9,8.2
		c0.1,4.2,3.7,7.8,8.1,7.6c4.3-0.1,7.8-3.7,7.6-8.1C18.3,6.1,15,2.6,10.6,2.6z"/>
	<path class="st0" d="M4.1,10.5C4.1,6.9,7,4,10.6,4c3.6,0,6.5,2.9,6.5,6.5c0,3.6-2.9,6.4-6.5,6.4C7,16.9,4.1,14,4.1,10.5z
		 M16.3,10.5c0-3.2-2.5-5.7-5.7-5.7c-3.2,0-5.7,2.5-5.7,5.7c0,3.2,2.6,5.7,5.7,5.7C13.8,16.2,16.3,13.7,16.3,10.5z"/>
	<path class="st0" d="M10.9,13.7c0,0.1,0,0.2,0,0.4c0,0.2-0.2,0.4-0.4,0.4c-0.2,0-0.3-0.1-0.4-0.4c0-0.1,0-0.3,0-0.4
		c-0.1-0.1-0.2-0.1-0.4-0.1c-0.7-0.2-1.1-0.8-1.1-1.5c0-0.2,0.1-0.4,0.3-0.4c0.2,0,0.4,0.1,0.4,0.3c0.1,0.6,0.3,0.8,0.9,0.9
		c0.3,0,0.6,0,1-0.1c0.3-0.1,0.5-0.4,0.5-0.7c0-0.3-0.1-0.6-0.4-0.8c-0.5-0.3-1-0.5-1.5-0.8c-0.2-0.1-0.3-0.2-0.5-0.3
		C8.8,9.9,8.7,9.4,8.7,8.7c0.1-0.6,0.4-1,0.9-1.2c0.2-0.1,0.4-0.1,0.6-0.2c0-0.1,0-0.2,0-0.3c0-0.3,0.1-0.4,0.4-0.4
		c0.2,0,0.4,0.2,0.4,0.4c0,0.1,0,0.2,0,0.3c0.3,0.1,0.5,0.2,0.7,0.3c0.6,0.3,0.8,0.8,0.8,1.4c0,0.2-0.1,0.4-0.3,0.4
		c-0.2,0-0.3-0.1-0.4-0.3c0,0,0-0.1,0-0.1c0-0.3-0.2-0.6-0.5-0.7C10.8,8,10.4,8,9.9,8.2C9.6,8.3,9.5,8.5,9.4,8.9
		c0,0.4,0.1,0.6,0.4,0.8c0.5,0.3,1,0.5,1.4,0.7c0.2,0.1,0.4,0.2,0.6,0.3c0.9,0.6,0.9,2.2-0.2,2.7C11.5,13.5,11.2,13.6,10.9,13.7z"/>
</g>
</svg>
