<?xml version="1.0" encoding="utf-8"?>
<!-- Generator: Adobe Illustrator 24.2.0, SVG Export Plug-In . SVG Version: 6.00 Build 0)  -->
<svg version="1.1" id="Layer_1" xmlns="http://www.w3.org/2000/svg" xmlns:xlink="http://www.w3.org/1999/xlink" x="0px" y="0px"
	 viewBox="0 0 55.5 55.5" style="enable-background:new 0 0 55.5 55.5;" xml:space="preserve">
<style type="text/css">
	.st0{fill:#FFFFFF;}
</style>
<g>
	<path class="st0" d="M30.2,39.7c-3.9,0-7.9,0-11.8,0c-3.9,0-6.5-4.6-4.5-7.9c1.1-1.9,2.8-2.9,5-2.9c4.5,0,8.9,0,13.4,0
		c2.4,0,4.9,0,7.3,0c0.2,0,0.4,0,0.5,0c0.2-0.1,0.4-0.3,0.4-0.5c0-0.2-0.2-0.4-0.4-0.5c-0.2-0.1-0.4-0.1-0.7-0.1
		c-3.7,0-7.4,0.1-11.1,0c-1.1,0-2.3,0-3.4-0.2c-2.5-0.6-4.2-2.9-4-5.4c0.1-2.7,2-4.8,4.7-5.1c1.7-0.2,3.4-0.1,5.1-0.1
		c1.9,0,3.7,0,5.6,0c0.3,0,0.7-0.3,0.7-0.5c0.1-0.5-0.3-0.6-0.8-0.6c-2.3,0-4.7,0-7,0c-3.7-0.1-7.2-3.5-7.3-7.3c0-1,0-2,0-3
		c0-1,0.5-1.6,1.5-1.8c0.5-0.1,1.1-0.1,1.6-0.1c1.1,0.1,1.7,0.9,1.7,2c0,0.8,0,1.6,0,2.4c0,1.7,1.3,3,3,3c2.2,0,4.4,0,6.6,0
		c2.5,0,4.5,1.5,5.3,3.8c1.1,3.3-1.4,6.9-4.8,7c-3.1,0.1-6.2,0-9.3,0c-0.3,0-0.6,0-0.9,0c-0.4,0-0.8,0.1-0.8,0.6
		c0,0.5,0.4,0.6,0.8,0.6c2.4,0,4.7,0,7.1,0c2.2,0,4.3,0,6.5,0c2.7,0,5,2.4,5.2,5c0.2,3.4-2.4,5.7-4.9,5.8c-1.4,0.1-2.9,0.1-4.3,0.1
		c-5,0-10,0-15.1,0c-0.8,0-1.5,0-2.3,0c-0.4,0-0.8,0.2-0.8,0.6c0,0.4,0.4,0.5,0.8,0.5c4.1,0,8.2,0,12.2,0c3.9,0,7.9,0,11.8,0
		c2.9,0,5.3,2.5,5.3,5.3c0,3.1-2.3,5.5-5.4,5.5c-3.5,0-7,0-10.5,0c-0.7,0-1.4,0-2.1,0.1c-1.3,0.1-2.2,1-2.2,2.3c0,0.6,0,1.2,0,1.9
		c0,1.1-0.8,1.8-1.8,1.9c-2.4,0.2-3-0.4-3-2.8c0-1.5,0.1-2.9,0.9-4.3c1.4-2.4,3.5-3.8,6.3-3.9c3.9-0.1,7.7,0,11.6,0
		c0.3,0,0.5,0.1,0.8,0c0.2-0.1,0.4-0.3,0.6-0.5c-0.2-0.2-0.4-0.5-0.6-0.6c-0.7-0.1-1.3-0.1-2-0.1C37.2,39.7,33.7,39.7,30.2,39.7
		C30.2,39.7,30.2,39.7,30.2,39.7z M30.9,35.9C30.9,35.9,30.9,35.9,30.9,35.9c-4.1,0-8.2,0-12.2,0c-1,0-1.6-0.7-1.6-1.6
		c0-0.9,0.6-1.6,1.5-1.6c1.7,0,3.4,0,5,0c4.9,0,9.8,0,14.6,0c1.2,0,2.4,0.1,3.5-0.4c1.8-0.8,2.9-2.8,2.5-4.9c-0.3-1.8-2.2-3.4-4-3.4
		c-2.1,0-4.2,0-6.4,0c-2.5,0-5,0-7.5,0c-0.8,0-1.5-0.5-1.6-1.2c-0.2-0.7,0.1-1.4,0.8-1.8c0.4-0.2,0.8-0.2,1.2-0.2c3.2,0,6.4,0,9.6,0
		c1.2,0,2.2-0.3,3-1.1c1.4-1.2,1.8-3.1,1.2-4.8c-0.6-1.6-2.3-2.8-4.1-2.8c-2.2,0-4.5,0-6.7,0c-1.9,0-3.6-1.4-3.9-3.3
		c-0.2-1-0.1-2-0.1-3c0-0.7-0.3-1-1-1c-0.3,0-0.5,0-0.8,0c-0.7,0-1,0.3-1,1c0,0.7,0,1.4,0,2.1c0,3.9,3,6.9,6.9,6.9
		c2.1,0,4.2,0,6.4,0c1.1,0,1.8,0.7,1.8,1.6c0,0.9-0.8,1.6-1.8,1.6c-3.3,0-6.7,0-10,0C24,18.1,22,20,22,22.3c0,2.5,1.8,4.5,4.2,4.5
		c1.7,0,3.4,0,5,0c2.8,0,5.6,0,8.4,0c0.5,0,1.1,0.2,1.5,0.5c0.5,0.4,0.6,1,0.4,1.6c-0.3,0.7-0.8,1-1.6,1.1c-1.7,0-3.5,0-5.2,0
		c-3.7,0-7.3,0-11,0c-2,0-3.9,0-5.9,0.1c-2.2,0.2-3.7,2.3-3.6,4.5c0.1,2.1,2,4.1,4.2,4.1c5.2,0,10.5,0,15.7,0c2.9,0,5.7,0,8.6,0
		c0.9,0,1.5,0.5,1.6,1.3c0.2,1.1-0.5,1.9-1.7,1.9c-4.1,0-8.2,0-12.2,0c-2.7,0-5,1.7-5.8,4.3c-0.3,1-0.3,2.2-0.3,3.3
		c-0.1,1.1,0.2,1.3,1.2,1.3c0.2,0,0.4,0,0.6,0c0.6,0,0.8-0.3,0.8-0.9c0-0.5,0-1.1,0-1.6c0.1-2.2,1.5-3.6,3.6-3.6c2.7,0,5.5,0,8.2,0
		c1.6,0,3.3,0.1,4.9-0.2c2.2-0.3,3.7-2.4,3.4-4.7c-0.2-2.1-2.1-3.8-4.3-3.8C38.8,35.9,34.8,35.9,30.9,35.9z"/>
	<path class="st0" d="M8.9,34.8c-0.8,0-1.6,0-2.4,0c-0.3,0-0.5-0.3-0.7-0.4c0.2-0.2,0.5-0.4,0.7-0.4c1.6,0,3.3,0,4.9,0
		c0.2,0,0.5,0.3,0.7,0.4c-0.2,0.2-0.5,0.4-0.7,0.5C10.6,34.8,9.7,34.8,8.9,34.8C8.9,34.8,8.9,34.8,8.9,34.8z"/>
	<path class="st0" d="M43.8,14.7c-0.2-0.1-0.4-0.2-0.4-0.3c0-0.2,0-0.4,0.1-0.6c0.5-0.6,1.1-1.2,1.7-1.7c0.6-0.7,1.3-1.3,2-1.9
		C47.4,10,47.8,9.9,48,10c0.4,0.3,0.1,0.5-0.1,0.8c-1.2,1.2-2.3,2.3-3.5,3.5C44.2,14.4,44,14.5,43.8,14.7z"/>
	<path class="st0" d="M43.8,18.4c0.2,0.2,0.4,0.3,0.5,0.4c1.2,1.1,2.3,2.3,3.4,3.5c0.2,0.2,0.3,0.6,0.2,0.8
		c-0.3,0.4-0.6,0.1-0.8-0.1c-1.2-1.2-2.4-2.4-3.5-3.6c-0.1-0.1-0.2-0.4-0.2-0.6C43.4,18.7,43.7,18.6,43.8,18.4z"/>
	<path class="st0" d="M7.8,27.6c0.2,0.1,0.3,0.2,0.4,0.3c1.2,1.2,2.5,2.4,3.6,3.7c0.1,0.2,0.1,0.5,0.1,0.8c-0.2-0.1-0.6,0-0.7-0.2
		c-1.2-1.2-2.5-2.4-3.7-3.6c-0.1-0.1-0.2-0.4-0.2-0.6C7.4,27.8,7.6,27.7,7.8,27.6z"/>
	<path class="st0" d="M7.7,41.1c-0.1-0.1-0.3-0.2-0.3-0.3c0-0.2,0.1-0.5,0.2-0.6c0.9-1,1.9-1.9,2.9-2.9c0.3-0.3,0.5-0.6,0.8-0.8
		c0.2-0.1,0.5-0.1,0.7-0.1c0,0.2,0,0.5-0.1,0.7c-1.2,1.3-2.5,2.5-3.7,3.8C8.1,40.9,7.9,41,7.7,41.1z"/>
	<path class="st0" d="M46.6,16.1c0.9,0,1.7,0,2.6,0c0.2,0,0.4,0.2,0.6,0.4c-0.2,0.2-0.4,0.5-0.6,0.5c-1.8,0-3.6,0-5.4,0
		c-0.2,0-0.3-0.3-0.5-0.4c0.2-0.1,0.3-0.4,0.5-0.4C44.8,16.1,45.7,16.1,46.6,16.1C46.6,16.1,46.6,16.1,46.6,16.1z"/>
</g>
</svg>
