<?xml version="1.0" encoding="utf-8"?>
<!-- Generator: Adobe Illustrator 24.2.0, SVG Export Plug-In . SVG Version: 6.00 Build 0)  -->
<svg version="1.1" id="Layer_1" xmlns="http://www.w3.org/2000/svg" xmlns:xlink="http://www.w3.org/1999/xlink" x="0px" y="0px"
	 viewBox="0 0 55.5 55.5" style="enable-background:new 0 0 55.5 55.5;" xml:space="preserve">
<style type="text/css">
	.st0{fill:#FFFFFF;}
</style>
<g>
	<g>
		<path class="st0" d="M43.8,49.4c-3.7,0-7.5,0-11.2,0c-0.2-0.2-0.4-0.4-0.5-0.7c-0.2-0.8-0.3-1.7-0.5-2.5c-0.1-0.4-0.1-0.7-0.2-1.1
			c-2.5,0.9-4.9,0.9-7.4,0c-0.2,1.2-0.4,2.3-0.6,3.4c-0.1,0.4-0.2,0.7-0.5,0.9c-3.7,0-7.5,0-11.2,0c-0.1-0.1-0.3-0.2-0.4-0.3
			c-1.5-1.5-2.5-3.3-2.8-5.5c-0.2-1.5-0.1-3-0.2-4.5c0-0.2,0.1-0.4,0.1-0.6c0.1-0.3,0-0.4-0.1-0.6c-0.6-0.6-1.1-1.2-1.6-1.8
			c-0.8-1.1-0.8-1.2,0.2-2.2c0,0,0,0,0.1-0.1c1.4-1.5,2.4-3.2,2.6-5.2c0.1-1.3,0.1-2.7,0.1-4c0-1.1,0-2.2,0.2-3.3
			c1-5.5,3.8-9.8,8.7-12.7c4.6-2.7,9.6-3.2,14.7-1.6c3.7,1.2,6.6,3.4,8.9,6.5c2,2.6,3.1,5.6,3.4,8.9c0.1,1.5,0.1,3,0.1,4.6
			c0,2.8,0.9,5.1,2.9,7c0.2,0.2,0.5,0.5,0.7,0.8c0,0.1,0,0.3,0,0.4c-0.6,1-1.4,2-2.3,2.8C47,38.1,47,38.3,47,38.4
			c0,0.3,0.2,0.7,0.2,1c0,0.9,0,1.7,0,2.6c0,1.6-0.4,3.1-1.2,4.6C45.5,47.6,44.8,48.6,43.8,49.4z M47.8,35.2
			c-0.2-0.3-0.4-0.4-0.5-0.6c-1.8-1.9-2.8-4.2-2.9-6.8c-0.1-1.2,0-2.3-0.1-3.5c-0.1-1.2-0.1-2.5-0.4-3.6c-0.7-3.5-2.5-6.5-5.2-8.9
			c-2.7-2.4-5.8-3.8-9.4-4.1c-3.1-0.3-6.1,0.2-8.9,1.6c-5.4,2.7-8.5,7.1-9.2,13.1c-0.2,1.5-0.1,3-0.1,4.6c0,2.1-0.5,4.1-1.6,5.9
			c-0.5,0.8-1.1,1.5-1.7,2.3c0.5,0.7,1.1,1.4,1.8,2c0.1,0,0.2,0.1,0.2,0.1c0.4,0,0.9,0,1.3-0.1c0-0.1,0-0.3,0-0.4c0-1.1,0-2.2,0-3.3
			c0-0.8,0.4-1.4,1.1-1.8c0.5-0.3,1.1-0.3,1.7-0.2c0-0.2,0-0.3,0-0.5c0-1.7,0-3.5,0-5.2c0-0.6,0.3-0.9,0.9-0.9c0.2,0,0.4,0,0.5,0
			c3.5-0.1,6.2-2.7,6.5-6.2c0.1-1.2,0-2.4,0-3.5c0-0.7,0.2-1,0.7-1.1c0.5,0,0.7,0.3,0.7,1c0,1.7,0.4,3.4,1.3,4.8
			c2,3.3,4.9,4.9,8.7,4.9c2.4,0,4.7,0,7.1,0c0.7,0,1,0.2,1,1c0,1.5,0,3,0,4.5c0,0.4,0,0.8,0,1.2c0.1,0,0.2,0,0.3-0.1
			c1.2-0.2,2.3,0.5,2.5,1.6c0.1,0.3,0,0.6,0.1,0.9c0,1.1,0,2.1,0,3.1c0.5,0,0.9,0.1,1.3,0.1c0.1,0,0.2,0,0.3-0.1
			C46.5,36.5,47.1,35.8,47.8,35.2z M40,26.3c-0.2,0-0.3,0-0.5,0c-2.2,0-4.4,0.1-6.7,0c-3.3-0.1-6-1.4-8.1-3.9
			c-0.6-0.6-1-1.4-1.5-2.1c-1.2,3.7-3.8,5.7-7.6,6c0,1.7,0,3.4,0,5.1c0.7-0.2,1.3-0.1,1.8,0.2c0.2,0.1,0.3,0.1,0.5,0
			c0.8-0.5,1.8-0.5,2.5,0.1c0.3,0.3,0.6,0.7,0.8,1c0.4,0,0.8-0.1,1.2,0c1.1,0.2,1.7,1.1,1.7,2.3c0,2.7,0,5.4,0,8.1
			c0,0.2,0.1,0.4,0.3,0.5c2.2,0.9,4.4,0.9,6.7,0c0.2-0.1,0.3-0.2,0.3-0.4c0-0.9,0-1.9,0-2.8c0-1.9,0-3.7,0-5.6c0-1.2,1-2,2.2-2
			c0.2,0,0.5,0.1,0.7,0.1c0.5-1.4,2.1-2.1,3.5-1c1.1-0.6,1-0.5,2.1-0.4C40,29.8,40,28.1,40,26.3z M40,40.7c0-0.2,0-0.3,0-0.5
			c0-2.1,0-4.2,0-6.4c0-0.1,0-0.3,0-0.4c-0.1-0.4-0.3-0.6-0.7-0.6c-0.4,0-0.6,0.2-0.7,0.6c0,0.1,0,0.3,0,0.4c0,2.1,0,4.3,0,6.4
			c0,0.1,0,0.3,0,0.5c-0.5,0-0.9,0-1.4,0c0-0.2,0-0.3,0-0.5c0-2.1,0-4.2,0-6.4c0-0.2,0-0.4-0.1-0.5c-0.1-0.4-0.4-0.5-0.7-0.5
			c-0.4,0-0.6,0.2-0.6,0.6c0,0.1,0,0.3,0,0.5c0,2.1,0,4.2,0,6.4c0,0.1,0,0.3,0,0.5c-0.5,0-0.9,0-1.4,0c0-0.2,0-0.3,0-0.5
			c0-1.7,0-3.4,0-5.1c0-0.5-0.3-0.9-0.7-0.9c-0.4,0-0.7,0.3-0.7,0.8c0,3.3,0,6.6,0.1,9.9c0,1,0.3,2,0.4,2.9c3.2,0,6.4,0,9.5,0
			c0-0.1,0-0.2,0-0.3c0-4.6,0-9.3,0-13.9c0-0.1,0-0.2,0-0.3c-0.1-0.3-0.3-0.5-0.6-0.5c-0.4,0-0.6,0.1-0.7,0.4
			c-0.1,0.2-0.1,0.4-0.1,0.5c0,2.1,0,4.3,0,6.4c0,0.2,0,0.3,0,0.5C40.9,40.7,40.5,40.7,40,40.7z M22.3,47.9c0.1-1.5,0.4-3,0.4-4.6
			c0.1-2.7,0-5.5,0-8.2c0-0.1,0-0.2,0-0.3c-0.1-0.4-0.3-0.6-0.6-0.6c-0.4,0-0.6,0.2-0.7,0.5c0,0.2-0.1,0.3-0.1,0.5c0,1.7,0,3.3,0,5
			c0,0.1,0,0.3,0,0.5c-0.5,0-0.9,0-1.4,0c0-0.2,0-0.3,0-0.5c0-2.1,0-4.2,0-6.4c0-0.2,0-0.3,0-0.5c-0.1-0.3-0.3-0.5-0.6-0.6
			c-0.4,0-0.6,0.2-0.7,0.5c0,0.2,0,0.3,0,0.5c0,2.1,0,4.3,0,6.4c0,0.1,0,0.3,0,0.5c-0.5,0-1,0-1.4,0c0-0.2,0-0.3,0-0.5
			c0-2.1,0-4.2,0-6.3c0-0.1,0-0.3,0-0.4c-0.1-0.4-0.4-0.6-0.7-0.6c-0.4,0-0.6,0.3-0.7,0.7c0,0.1,0,0.3,0,0.4c0,2.1,0,4.2,0,6.3
			c0,0.2,0,0.3,0,0.5c-0.5,0-1,0-1.4,0c0-0.2,0-0.3,0-0.5c0-2.1,0-4.2,0-6.4c0-0.2,0-0.4-0.1-0.5c-0.1-0.3-0.4-0.5-0.7-0.5
			c-0.4,0-0.6,0.2-0.6,0.6c0,0.1,0,0.3,0,0.5c0,4.5,0,9.1,0,13.6c0,0.2,0,0.3,0,0.5C15.8,47.9,19,47.9,22.3,47.9z M11.2,46.4
			c0-2.4,0-4.7,0-7.1c0-0.4-0.3-0.7-0.7-0.7c-0.4,0-0.7,0.3-0.7,0.8c0,1,0,2,0,3C9.9,43.9,10.3,45.2,11.2,46.4z M44.3,46.4
			c0,0,0.1,0,0.1,0c0.2-0.4,0.4-0.7,0.5-1.1c0.9-2,0.8-4.1,0.8-6.2c0-0.4-0.3-0.6-0.6-0.6c-0.4,0-0.6,0.2-0.7,0.5
			c0,0.2-0.1,0.4-0.1,0.5c0,1.7,0,3.5,0,5.2C44.3,45.4,44.3,45.9,44.3,46.4z"/>
		<path class="st0" d="M18.4,27.8c0.5,0,0.9,0,1.4,0c0.1,0.7,0.3,1.4,1,1.8c0.4,0.2,0.9,0.4,1.3,0.4c1.1,0,1.9-0.8,2-2.1
			c0.4,0,0.9,0,1.4,0c0.2,1.5-1.3,3.3-3,3.5C20.2,31.6,18.4,29.8,18.4,27.8z"/>
		<path class="st0" d="M35.7,27.8c0.5,0,0.9,0,1.4,0c0,2-1.7,3.6-3.6,3.6c-2-0.1-3.6-1.7-3.5-3.6c0.5,0,0.9,0,1.4,0
			c0.3,1.4,1,2.1,2.2,2.1C34.6,29.9,35.4,29.2,35.7,27.8z"/>
	</g>
</g>
</svg>
