<?xml version="1.0" encoding="utf-8"?>
<!-- Generator: Adobe Illustrator 24.2.0, SVG Export Plug-In . SVG Version: 6.00 Build 0)  -->
<svg version="1.1" id="Layer_1" xmlns="http://www.w3.org/2000/svg" xmlns:xlink="http://www.w3.org/1999/xlink" x="0px" y="0px"
	 viewBox="0 0 55.5 55.5" style="enable-background:new 0 0 55.5 55.5;" xml:space="preserve">
<style type="text/css">
	.st0{fill:#FFFFFF;}
</style>
<g>
	<path class="st0" d="M15.8,37.2c-1.4,3.9-2.8,7.6-0.7,11.5c0.4,0.7,0.3,2.5,0.1,2.5c-1.5,0.4-1.2-1.1-1.6-1.9
		c-1.9-3.3-1.3-6.7-0.3-10.2c0.6-2.1,1.1-4.2,1.2-6.4c0.1-1.4-0.7-2.8-1-4.3c-0.1-0.5,0-1,0-1.5c0.5,0.2,1.2,0.3,1.4,0.6
		c0.6,1.7,1,3.4,1.4,5.1c0.3,1.2,0.3,2.5,0.9,3.4c2.3,3.7,3,7.5,2.2,11.7c-0.1,0.7-0.1,1.4-0.4,2c-0.2,0.6-0.7,1-1,1.5
		c-0.2-0.5-0.6-1.1-0.6-1.6c0.1-1.3,0.3-2.5,0.5-3.8C18.3,42.9,17.5,40,15.8,37.2z"/>
	<path class="st0" d="M48,39c-0.7-3.4-1.4-6.4-2-9.5c-0.2-1.3-0.3-2.6-0.3-3.9c0-2.3-0.9-4.1-2.9-5.3c-3.4-2.1-6.7-4.2-10-6.4
		c-0.8-0.6-1.4-1.5-2-2.3c-0.2-0.3-0.1-0.8,0.1-1.2c0.2-0.6,0.6-1.1,0.9-1.7c0.2-0.3,0.5-0.7,0.8-0.7c0.3,0,0.6,0.4,0.8,0.7
		c0.1,0.1,0.1,0.3,0,0.5c-0.7,2.6,0.9,3.7,2.9,4.8c3,1.7,6,3.7,8.7,5.9c1.1,0.9,2.1,2.7,2.1,4.1c0.1,3.3,1,6.4,1.7,9.6
		c0.3,1.3,0.2,2.6,0.3,4C49.2,38.7,48.7,39.2,48,39z"/>
	<path class="st0" d="M16.1,16.2c0.8,1,0.7,1.8-0.4,2.3c-4.1,2-5.9,5.1-5.7,9.8c0.1,2.4-1.2,4.8-1.5,7.2C8.2,38.4,8,41.3,8,44.2
		c0,1.4,0.6,2.8,0.9,4.2c0.1,0.6,0.4,1.1,0.4,1.7c0,0.4-0.3,0.9-0.4,1.3c-0.4-0.3-1-0.5-1.1-0.9c-0.9-2.7-1.9-5.3-1.3-8.4
		C7,39.6,6.8,37,7,34.4c0-0.5,0.1-1.1,0.2-1.5c1-3,1.4-6,1.6-9.1c0.1-1.4,1.1-3,2.1-4C12.4,18.4,14.3,17.4,16.1,16.2z"/>
	<path class="st0" d="M41.4,40.5c-0.2-0.6-0.4-1.1-0.6-1.6c-0.2-0.5-0.3-0.9-0.7-1.8c-0.7,1.4-1.2,2.4-1.8,3.6
		c-0.4-0.1-0.8-0.3-1.5-0.5c0.4-0.9,0.6-1.9,1.2-2.6c1.3-1.9,1.7-4,1.9-6.3c0.1-1.3,0.8-2.6,1.4-3.8c0.1-0.3,0.8-0.3,1.3-0.4
		c0,0.4,0.2,0.9,0.1,1.2c-1.9,3.3-1.5,6.6-0.3,10C42.8,39.2,43.1,40.1,41.4,40.5z"/>
	<path class="st0" d="M27.2,43c0-6.7,0-13.4,0-20C28.4,24.4,28.6,39.9,27.2,43z"/>
	<path class="st0" d="M38.6,38.6c0,1.3,0,2.6,0,4c-1,0.1-1.4-0.1-1.1-1.1c0.1-0.4-0.1-0.9,0-1.4c0.1-0.6,0.3-1.1,0.5-1.6
		C38.2,38.5,38.4,38.5,38.6,38.6z"/>
	<path class="st0" d="M48,49.6c-1.4,0-2.9,0-4.4,0c0.1-0.3,0.1-0.7,0.2-1.2c-0.8-0.2-1.6-0.4-2.5-0.7c0-0.1,0-0.2,0-0.3
		c1.3,0,2.6,0,4.1,0c0,0.3,0.1,0.7,0.1,1.1c0.8,0.2,1.7,0.5,2.5,0.7C48,49.4,48,49.5,48,49.6z"/>
	<path class="st0" d="M48,43.5c-1.3,0.6-2.6,1.1-4.1,1.7c-0.1-0.3-0.2-0.7-0.3-1.2c-0.8,0.1-1.7,0.2-2.5,0.3c0-0.1,0-0.2-0.1-0.3
		c1.2-0.5,2.4-1,3.7-1.6c0.2,0.3,0.3,0.6,0.5,1c0.9-0.1,1.7-0.2,2.6-0.4C48,43.2,48,43.4,48,43.5z"/>
	<path class="st0" d="M18.2,10.4c-1-1-2-2-3.1-3.1c0.3-0.2,0.6-0.4,1-0.7c-0.4-0.7-0.8-1.5-1.2-2.2c0.1-0.1,0.2-0.1,0.2-0.2
		C16,5.1,16.9,6,17.9,7c-0.2,0.3-0.5,0.5-0.7,0.8c0.4,0.8,0.9,1.5,1.3,2.3C18.4,10.2,18.3,10.3,18.2,10.4z"/>
	<path class="st0" d="M16.5,12.7c-1.4-0.5-2.7-0.9-4.2-1.4c0.2-0.3,0.3-0.6,0.6-1.1c-0.7-0.5-1.4-0.9-2.1-1.4c0-0.1,0.1-0.2,0.1-0.3
		c1.2,0.4,2.5,0.8,3.8,1.3c-0.1,0.3-0.2,0.7-0.3,1.1c0.7,0.5,1.5,1,2.2,1.5C16.6,12.4,16.5,12.5,16.5,12.7z"/>
	<path class="st0" d="M20.9,12.2c-1.8,0-3.2,1.5-3.2,3.3c0.1,1.7,1.5,3.1,3.3,3.1c1.8,0,3.3-1.4,3.3-3.3
		C24.2,13.6,22.8,12.2,20.9,12.2z M21,16.6c-0.7,0-1.2-0.5-1.2-1.2c0-0.7,0.5-1.2,1.2-1.2c0.7,0,1.2,0.5,1.2,1.2
		C22.2,16.1,21.7,16.6,21,16.6z"/>
	<path class="st0" d="M36.7,43.5c-1.8,0-3.2,1.5-3.2,3.3c0.1,1.7,1.5,3.1,3.3,3.1c1.8,0,3.3-1.4,3.3-3.3
		C40,44.9,38.5,43.5,36.7,43.5z M36.8,47.9c-0.7,0-1.2-0.5-1.2-1.2s0.5-1.2,1.2-1.2c0.7,0,1.2,0.5,1.2,1.2S37.5,47.9,36.8,47.9z"/>
</g>
</svg>
