<?xml version="1.0" encoding="utf-8"?>
<!-- Generator: Adobe Illustrator 24.2.0, SVG Export Plug-In . SVG Version: 6.00 Build 0)  -->
<svg version="1.1" id="Layer_1" xmlns="http://www.w3.org/2000/svg" xmlns:xlink="http://www.w3.org/1999/xlink" x="0px" y="0px"
	 viewBox="0 0 173.5 30.8" style="enable-background:new 0 0 173.5 30.8;" xml:space="preserve">
<style type="text/css">
	.st0{fill:#FFCF3B;}
</style>
<g>
	<path class="st0" d="M61,30.6c-2.7-1.4-5.4-2.7-8-4.2c-1.3-0.8-2.4-0.8-3.7,0c-2.4,1.4-4.8,2.6-7.3,3.8c-0.2,0.1-0.4,0.2-0.8,0.3
		c0.5-2.9,0.8-5.7,1.5-8.4c0.4-1.8,0.1-3.1-1.3-4.4c-2.1-1.9-4-4.1-5.9-6.1c3.1-0.5,6.4-1,9.7-1.4c0.7-0.1,1.1-0.4,1.5-1.1
		c1.4-3,2.9-5.9,4.5-9.1c0.3,0.6,0.6,1,0.8,1.4c1.3,2.5,2.5,5.1,3.7,7.6c0.3,0.7,0.7,1,1.5,1.2c3.3,0.4,6.6,0.9,10,1.4
		c-0.3,0.3-0.4,0.5-0.6,0.8c-2.1,2.1-4.3,4.2-6.4,6.3c-0.6,0.6-0.8,1.2-0.7,2c0.6,3,1.1,6,1.6,9C61,30,61,30.2,61,30.6z"/>
	<g>
		<path class="st0" d="M96.6,30.7c-2.7-1.4-5.4-2.7-8-4.2c-1.3-0.8-2.4-0.8-3.7,0c-2.4,1.4-4.8,2.6-7.3,3.8
			c-0.2,0.1-0.4,0.2-0.8,0.3c0.5-2.9,0.8-5.7,1.5-8.4c0.4-1.8,0.1-3.1-1.3-4.4c-2.1-1.9-4-4.1-5.9-6.1c3.1-0.5,6.4-1,9.7-1.4
			c0.7-0.1,1.1-0.4,1.5-1.1c1.4-3,2.9-5.9,4.5-9.1c0.3,0.6,0.6,1,0.8,1.4c1.3,2.5,2.5,5.1,3.7,7.6c0.3,0.7,0.7,1,1.5,1.2
			c3.3,0.4,6.6,0.9,10,1.4c-0.3,0.3-0.4,0.5-0.6,0.8c-2.1,2.1-4.3,4.2-6.4,6.3c-0.6,0.6-0.8,1.2-0.7,2c0.6,3,1.1,6,1.6,9
			C96.6,30.1,96.6,30.4,96.6,30.7z"/>
	</g>
	<g>
		<path class="st0" d="M131.7,30.7c-2.7-1.4-5.4-2.7-8-4.2c-1.3-0.8-2.4-0.8-3.7,0c-2.4,1.4-4.8,2.6-7.3,3.8
			c-0.2,0.1-0.4,0.2-0.8,0.3c0.5-2.9,0.8-5.7,1.5-8.4c0.4-1.8,0.1-3.1-1.3-4.4c-2.1-1.9-4-4.1-5.9-6.1c3.1-0.5,6.4-1,9.7-1.4
			c0.7-0.1,1.1-0.4,1.5-1.1c1.4-3,2.9-5.9,4.5-9.1c0.3,0.6,0.6,1,0.8,1.4c1.3,2.5,2.5,5.1,3.7,7.6c0.3,0.7,0.7,1,1.5,1.2
			c3.3,0.4,6.6,0.9,10,1.4c-0.3,0.3-0.4,0.5-0.6,0.8c-2.1,2.1-4.3,4.2-6.4,6.3c-0.6,0.6-0.8,1.2-0.7,2c0.6,3,1.1,6,1.6,9
			C131.8,30,131.7,30.3,131.7,30.7z"/>
		<g>
			<path class="st0" d="M167.3,30.8c-2.7-1.4-5.4-2.7-8-4.2c-1.3-0.8-2.4-0.8-3.7,0c-2.4,1.4-4.8,2.6-7.3,3.8
				c-0.2,0.1-0.4,0.2-0.8,0.3c0.5-2.9,0.8-5.7,1.5-8.4c0.4-1.8,0.1-3.1-1.3-4.4c-2.1-1.9-4-4.1-5.9-6.1c3.1-0.5,6.4-1,9.7-1.4
				c0.7-0.1,1.1-0.4,1.5-1.1c1.4-3,2.9-5.9,4.5-9.1c0.3,0.6,0.6,1,0.8,1.4c1.3,2.5,2.5,5.1,3.7,7.6c0.3,0.7,0.7,1,1.5,1.2
				c3.3,0.4,6.6,0.9,10,1.4c-0.3,0.3-0.4,0.5-0.6,0.8c-2.1,2.1-4.3,4.2-6.4,6.3c-0.6,0.6-0.8,1.2-0.7,2c0.6,3,1.1,6,1.6,9
				C167.3,30.2,167.3,30.4,167.3,30.8z"/>
		</g>
	</g>
	<g>
		<path class="st0" d="M25.5,30.5c-2.7-1.4-5.4-2.7-8-4.2c-1.3-0.8-2.4-0.8-3.7,0c-2.4,1.4-4.8,2.6-7.3,3.8
			c-0.2,0.1-0.4,0.2-0.8,0.3c0.5-2.9,0.8-5.7,1.5-8.4c0.4-1.8,0.1-3.1-1.3-4.4c-2.1-1.9-4-4.1-5.9-6.1c3.1-0.5,6.4-1,9.7-1.4
			c0.7-0.1,1.1-0.4,1.5-1.1c1.4-3,2.9-5.9,4.5-9.1c0.3,0.6,0.6,1,0.8,1.4c1.3,2.5,2.5,5.1,3.7,7.6c0.3,0.7,0.7,1,1.5,1.2
			c3.3,0.4,6.6,0.9,10,1.4c-0.3,0.3-0.4,0.5-0.6,0.8c-2.1,2.1-4.3,4.2-6.4,6.3c-0.6,0.6-0.8,1.2-0.7,2c0.6,3,1.1,6,1.6,9
			C25.5,29.9,25.5,30.1,25.5,30.5z"/>
	</g>
</g>
</svg>
